
<svg width="2756.47299px" height="2600.07515px" viewBox="0 0 2756.47299 2600.07515" version="1.1" xmlns="http://www.w3.org/2000/svg" xmlns:xlink="http://www.w3.org/1999/xlink">
    <g id="页面-1" stroke="none" stroke-width="1" fill="none" fill-rule="evenodd">
        <g id="image-LOGO" fill="#DC3E39" fill-rule="nonzero">
            <path d="M222.057928,1.93294082 C222.782536,1.84877681 223.507145,1.73655813 224.235894,1.67644098 C265.368813,-1.73821314 309.420869,1.11534758 350.83121,1.14741006 L603.168874,1.19149597 L1415.57094,1.17546473 L2175.47823,1.18748816 L2411.90763,1.08729291 C2455.43797,1.07927729 2500.4465,-1.27330718 2543.75325,2.80263559 C2591.2296,7.27134374 2633.54673,24.5971064 2670.77919,53.3731822 C2716.07757,88.3733869 2747.3641,140.238456 2753.35143,196.379859 C2757.91854,239.195293 2755.63292,283.46957 2755.60393,326.501426 L2755.44245,545.127461 L2755.49213,1262.95028 L2755.48799,2026.6505 L2755.60393,2268.32545 C2755.62049,2311.27715 2758.27049,2356.0524 2754.23339,2398.81173 C2750.29566,2440.54505 2732.23841,2481.27242 2705.03454,2513.66354 C2663.69873,2562.87944 2603.6556,2591.8479 2538.92115,2598.01191 C2481.7102,2601.25823 2423.66285,2599.55091 2366.33182,2599.53888 L2078.55459,2599.50281 L1189.84918,2599.43869 L532.716224,2599.4467 L328.633346,2599.56293 C288.233316,2599.58297 246.620085,2601.52275 206.422947,2597.71934 C200.932484,2597.1716 195.469626,2596.43283 190.034373,2595.50302 C184.599119,2594.57321 179.206651,2593.45636 173.85697,2592.15249 C168.504529,2590.84594 163.208676,2589.35504 157.969411,2587.67977 C152.727386,2586.00451 147.555752,2584.14756 142.454508,2582.10892 C137.353264,2580.07295 132.333453,2577.86064 127.395073,2575.47198 C122.459454,2573.086 117.617689,2570.53035 112.869778,2567.80504 C108.124628,2565.07706 103.485753,2562.18877 98.9531544,2559.14016 C94.4233161,2556.09155 90.0121756,2552.88797 85.7197329,2549.52943 C40.5497093,2514.67351 10.2734959,2464.52378 3.85967549,2408.71903 C-1.46516183,2362.39276 0.634132511,2314.1788 0.609288791,2267.59202 L0.596866931,2047.65142 L0.584445071,1325.07534 L0.687960571,576.957488 L0.538898251,341.430518 C0.534757631,294.65136 -1.74672399,246.369273 3.11022327,199.798521 C7.63178031,156.442032 25.407462,116.852885 53.7665684,83.139187 C96.2534702,32.6247498 156.383554,8.11699165 222.057928,1.93294082 Z M1129.95925,2097.14387 L1132.76659,2096.22608 C1150.79899,2090.16627 1159.39492,2083.10451 1167.80866,2066.30377 C1183.72934,2034.50981 1195.40589,1999.06073 1208.954,1966.0965 L1297.35624,1751.13761 C1310.29982,1719.68431 1323.4173,1676.10339 1342.7747,1648.6539 C1347.32938,1647.98459 1347.37493,1647.84833 1350.81992,1650.57364 C1366.00772,1662.59707 1382.82278,1717.6243 1391.94456,1736.42494 C1399.82002,1752.64855 1409.25649,1768.40325 1417.93109,1784.25815 C1549.5407,2024.83897 1796.49142,2131.58699 2069.47007,2116.85428 C2183.95821,2110.67423 2296.35949,2085.40499 2399.73834,2036.8103 C2420.73129,2026.93906 2447.70329,2015.12404 2463.20163,1997.57384 C2466.57209,1993.75439 2469.11857,1989.44199 2471.52013,1985.01336 L2470.55123,1981.92334 C2456.75054,1938.7472 2429.20714,1896.45679 2408.05685,1856.09013 C2388.90234,1819.52688 2371.31713,1779.96178 2348.75903,1745.39041 C2343.81927,1737.81965 2337.91889,1729.20687 2329.5921,1724.91451 C2308.10228,1724.28528 2237.82768,1762.1671 2211.60928,1772.02631 C2183.10111,1782.75121 2150.3074,1788.38619 2120.09743,1792.46614 C1988.01994,1810.3009 1864.79508,1774.77968 1772.47996,1679.44991 C1660.60455,1563.92078 1628.44849,1408.36966 1633.9638,1255.02283 C1639.15614,1110.58937 1697.62583,969.943298 1808.22593,871.339149 C1810.51708,869.311197 1812.83444,867.311299 1815.17804,865.339457 C1817.51887,863.367614 1819.88454,861.425162 1822.27506,859.512101 C1824.66834,857.596368 1827.08508,855.710025 1829.52528,853.853073 C1831.96549,851.99345 1834.42916,850.164552 1836.91629,848.366382 C1839.40066,846.568211 1841.90988,844.800767 1844.44394,843.064049 C1846.97524,841.324659 1849.52862,839.615996 1852.10408,837.93806 C1854.67955,836.262795 1857.27572,834.616921 1859.89259,833.000438 C1862.50946,831.386627 1865.14704,829.803542 1867.80532,828.251183 C1870.46359,826.698825 1873.14119,825.178529 1875.83812,823.690295 C1878.53504,822.202062 1881.24991,820.747227 1883.98272,819.32579 C1886.71829,817.901682 1889.47042,816.510972 1892.23911,815.15366 C1895.00781,813.796348 1897.79445,812.472435 1900.59903,811.18192 C1903.40085,809.891406 1906.22061,808.634289 1909.05831,807.410571 C1911.89326,806.189525 1914.74338,805.000541 1917.60869,803.84362 C1920.474,802.689371 1923.35449,801.569856 1926.25017,800.485076 C1929.14308,799.397623 1932.0498,798.346241 1934.97031,797.330929 C1937.89359,796.315617 1940.82791,795.33504 1943.77327,794.389197 C1946.71863,793.443353 1949.67641,792.532245 1952.64662,791.65587 C1955.61682,790.779496 1958.59669,789.939191 1961.58622,789.134958 C1964.57851,788.330724 1967.57908,787.56256 1970.58793,786.830467 C1973.59954,786.098374 1976.61943,785.402351 1979.6476,784.742398 C1982.67578,784.082445 1985.71223,783.458563 1988.75697,782.870751 C1991.8017,782.28561 1994.85334,781.735204 1997.91188,781.219533 C2000.97041,780.706533 2004.03447,780.229604 2007.10405,779.788745 C2010.17363,779.347886 2013.24873,778.943097 2016.32935,778.574378 C2019.40998,778.208332 2022.49474,777.878355 2025.58364,777.584449 C2028.6753,777.290543 2031.76835,777.034043 2034.86277,776.81495 C2037.95995,776.593184 2041.05852,776.410161 2044.15846,776.26588 C2047.25841,776.121599 2050.35973,776.013388 2053.46243,775.941247 C2056.56514,775.869106 2059.66922,775.834372 2062.77469,775.837044 C2065.88015,775.839716 2068.98424,775.879794 2072.08694,775.957278 C2075.18965,776.034763 2078.29097,776.149653 2081.39092,776.30195 C2139.34717,778.854925 2196.01156,795.33504 2248.53532,818.744658 C2268.8078,827.782269 2290.50465,840.595238 2312.07728,846.04586 C2317.53462,847.424546 2321.78703,846.843414 2326.36242,843.444791 C2333.52155,838.126427 2339.50061,827.477676 2344.00146,819.866845 C2359.5205,793.627713 2471.10607,588.616208 2470.72927,576.316239 C2470.43115,566.436987 2463.37967,558.517555 2455.86859,552.525879 C2437.74924,538.073716 2412.7813,528.691433 2391.37843,519.457438 C2275.97935,469.696469 2128.20063,439.06077 2001.42726,450.99202 C1807.81601,462.26599 1624.89998,537.628849 1494.76444,679.637581 C1383.46043,801.094263 1328.10448,948.501514 1264.84823,1096.029 L1139.75596,1386.02211 C1130.31535,1407.86868 1102.85475,1484.7505 1089.2404,1497.37109 C1084.03978,1496.70179 1082.03572,1495.75595 1078.7315,1491.64794 C1064.92668,1474.49051 1029.79766,1371.05294 1018.57243,1342.54539 L777.310929,721.479117 L720.35256,575.674989 C709.562105,547.788647 700.237428,515.112972 684.61901,489.519098 C678.416361,479.355291 667.493405,473.403694 655.597404,471.355703 C623.615255,465.844964 538.753248,469.680438 500.994935,469.668415 L370.350092,469.692462 C347.100511,469.708493 322.828197,468.430001 299.698693,470.542117 C289.641127,471.459906 278.966609,473.780428 270.751619,479.788135 C264.047955,484.689687 260.789287,491.318604 260.043976,499.334224 C258.917727,511.497928 263.48069,524.206693 267.807638,535.476655 C304.004938,629.780424 343.899812,723.134343 381.571173,816.933128 L644.090621,1473.08377 L807.930814,1881.2231 C834.078829,1945.91317 856.247709,2014.63909 887.463843,2077.05672 C892.65618,2087.44096 904.055307,2091.64115 914.858185,2094.97564 C948.359941,2105.32782 1094.78055,2104.76272 1129.95925,2097.14387 Z" id="形状"></path>
        </g>
    </g>
</svg>
